<svg width="35" height="30" viewBox="0 0 35 30" fill="none" xmlns="http://www.w3.org/2000/svg">
<path fill-rule="evenodd" clip-rule="evenodd" d="M4.08823 3.67156C2.91666 4.84313 2.91666 6.72875 2.91666 10.5V19.5C2.91666 23.2712 2.91666 25.1568 4.08823 26.3284C5.2598 27.5 7.14542 27.5 10.9167 27.5H24.0833C27.8546 27.5 29.7402 27.5 30.9118 26.3284C32.0833 25.1568 32.0833 23.2712 32.0833 19.5V10.5C32.0833 7.28013 32.0833 5.43482 31.3542 4.23489V21.25C30.6558 21.25 30.3066 21.25 29.9717 21.1927C29.4845 21.1093 29.0169 20.9363 28.5928 20.6826C28.3012 20.5081 28.036 20.2809 27.5058 19.8264L25.9365 18.4813C24.6943 17.4165 24.0732 16.8841 23.3333 16.8841C22.5935 16.8841 21.9724 17.4165 20.7302 18.4813L19.4449 19.5829C18.5496 20.3503 18.102 20.734 17.6237 20.6374C17.1454 20.5408 16.8818 20.0135 16.3544 18.9589L15.4161 17.0822C14.3615 14.9729 13.8341 13.9183 12.8776 13.7251C11.921 13.5319 11.0258 14.2993 9.23524 15.8341L5.10416 19.375V3.00043C4.71024 3.16448 4.37747 3.38231 4.08823 3.67156Z" fill="white"/>
<path d="M3.91666 10.5C3.91666 8.58611 3.91878 7.25129 4.05419 6.24416C4.18572 5.26579 4.42632 4.7477 4.79534 4.37868C5.16435 4.00966 5.68245 3.76907 6.66082 3.63753C7.66795 3.50212 9.00277 3.5 10.9167 3.5H24.0833C25.9972 3.5 27.332 3.50212 28.3392 3.63753C29.3175 3.76907 29.8356 4.00966 30.2046 4.37868C30.5737 4.7477 30.8143 5.26579 30.9458 6.24416C31.0812 7.25129 31.0833 8.58611 31.0833 10.5V19.5C31.0833 21.4139 31.0812 22.7487 30.9458 23.7558C30.8143 24.7342 30.5737 25.2523 30.2046 25.6213C29.8356 25.9903 29.3175 26.2309 28.3392 26.3625C27.332 26.4979 25.9972 26.5 24.0833 26.5H10.9167C9.00276 26.5 7.66795 26.4979 6.66082 26.3625C5.68245 26.2309 5.16435 25.9903 4.79534 25.6213C4.42632 25.2523 4.18572 24.7342 4.05419 23.7558C3.91878 22.7487 3.91666 21.4139 3.91666 19.5V10.5Z" stroke="white" stroke-width="2"/>
<ellipse cx="21.875" cy="11.25" rx="2.91667" ry="2.5" fill="white"/>
</svg>
