<svg width="35" height="35" viewBox="0 0 35 35" fill="none" xmlns="http://www.w3.org/2000/svg">
<rect x="5.83331" y="4.375" width="23.3333" height="26.25" rx="2" fill="white"/>
<path d="M12.3958 9.47916L22.6041 9.47916" stroke="#8884FF" stroke-linecap="round"/>
<path d="M12.3958 13.8542L18.2291 13.8542" stroke="#8884FF" stroke-linecap="round"/>
<path d="M12.3958 18.2292L21.1458 18.2292" stroke="#8884FF" stroke-linecap="round"/>
<path d="M5.83331 27.7083C5.83331 26.8546 5.83331 26.4277 5.9615 26.0872C6.16438 25.5481 6.58978 25.1227 7.12881 24.9198C7.4694 24.7917 7.89626 24.7917 8.74998 24.7917H25.1666C27.0523 24.7917 27.9951 24.7917 28.5809 24.2059C29.1666 23.6201 29.1666 22.6773 29.1666 20.7917V20.4167V26.625C29.1666 28.5106 29.1666 29.4534 28.5809 30.0392C27.9951 30.625 27.0523 30.625 25.1666 30.625H8.74998C7.89626 30.625 7.4694 30.625 7.12881 30.4968C6.58978 30.2939 6.16438 29.8685 5.9615 29.3295C5.83331 28.9889 5.83331 28.562 5.83331 27.7083Z" fill="#8884FF"/>
</svg>
